# xmcd
# 
# Track frame offsets:
#     150
#     27195
#     81537
#     143473
#     209942
#     256704
#     315134
# 
# Disc length: 4404
# 
# Revision: 0
# Processed by: cddbd v1.5.2PL0 Copyright (c) Steve Scherf et al.
# Submitted via: BonkEnc v1.0.6
# 
DISCID=57113207
DTITLE=Tolstoi Leo - Krieg und Frieden 35
DYEAR=0
DGENRE=Speech
TTITLE0=3501
TTITLE1=3502
TTITLE2=3503
TTITLE3=3504
TTITLE4=3505
TTITLE5=3506
TTITLE6=3507
EXTD=
EXTT0=
EXTT1=
EXTT2=
EXTT3=
EXTT4=
EXTT5=
EXTT6=
PLAYORDER=
